<svg id="visual" viewBox="0 0 900 600" width="900" height="600" xmlns="http://www.w3.org/2000/svg" xmlns:xlink="http://www.w3.org/1999/xlink" version="1.1"><rect x="0" y="0" width="900" height="600" fill="#0b2100"></rect><defs><linearGradient id="grad1_0" x1="33.3%" y1="100%" x2="100%" y2="0%"><stop offset="20%" stop-color="#d0c928" stop-opacity="1"></stop><stop offset="80%" stop-color="#d0c928" stop-opacity="1"></stop></linearGradient></defs><defs><linearGradient id="grad1_1" x1="33.3%" y1="100%" x2="100%" y2="0%"><stop offset="20%" stop-color="#d0c928" stop-opacity="1"></stop><stop offset="80%" stop-color="#57731c" stop-opacity="1"></stop></linearGradient></defs><defs><linearGradient id="grad1_2" x1="33.3%" y1="100%" x2="100%" y2="0%"><stop offset="20%" stop-color="#0b2100" stop-opacity="1"></stop><stop offset="80%" stop-color="#57731c" stop-opacity="1"></stop></linearGradient></defs><defs><linearGradient id="grad2_0" x1="0%" y1="100%" x2="66.7%" y2="0%"><stop offset="20%" stop-color="#d0c928" stop-opacity="1"></stop><stop offset="80%" stop-color="#d0c928" stop-opacity="1"></stop></linearGradient></defs><defs><linearGradient id="grad2_1" x1="0%" y1="100%" x2="66.7%" y2="0%"><stop offset="20%" stop-color="#57731c" stop-opacity="1"></stop><stop offset="80%" stop-color="#d0c928" stop-opacity="1"></stop></linearGradient></defs><defs><linearGradient id="grad2_2" x1="0%" y1="100%" x2="66.7%" y2="0%"><stop offset="20%" stop-color="#57731c" stop-opacity="1"></stop><stop offset="80%" stop-color="#0b2100" stop-opacity="1"></stop></linearGradient></defs><g transform="translate(900, 600)"><path d="M-540.8 0C-515.2 -87.4 -489.6 -174.9 -447.7 -258.5C-405.9 -342.1 -347.7 -422 -270.4 -468.4C-193.1 -514.8 -96.5 -527.8 0 -540.8L0 0Z" fill="#2b4913"></path><path d="M-360.6 0C-343.5 -58.3 -326.4 -116.6 -298.5 -172.3C-270.6 -228.1 -231.8 -281.3 -180.3 -312.2C-128.7 -343.2 -64.4 -351.9 0 -360.6L0 0Z" fill="#8e9e22"></path><path d="M-180.3 0C-171.7 -29.1 -163.2 -58.3 -149.2 -86.2C-135.3 -114 -115.9 -140.7 -90.1 -156.1C-64.4 -171.6 -32.2 -175.9 0 -180.3L0 0Z" fill="#d0c928"></path></g><g transform="translate(0, 0)"><path d="M540.8 0C450.1 49.8 359.4 99.7 325.6 188C291.9 276.3 315.2 403.2 270.4 468.4C225.6 533.6 112.8 537.2 0 540.8L0 0Z" fill="#2b4913"></path><path d="M360.6 0C300.1 33.2 239.6 66.4 217.1 125.3C194.6 184.2 210.1 268.8 180.3 312.2C150.4 355.7 75.2 358.1 0 360.6L0 0Z" fill="#8e9e22"></path><path d="M180.3 0C150 16.6 119.8 33.2 108.5 62.7C97.3 92.1 105.1 134.4 90.1 156.1C75.2 177.9 37.6 179.1 0 180.3L0 0Z" fill="#d0c928"></path></g></svg>